<!-- Generator: Adobe Illustrator 22.0.1, SVG Export Plug-In 

Don't tell anyone I pirated Illustrator X_X

 -->
<svg version="1.1"
	 xmlns="http://www.w3.org/2000/svg" xmlns:xlink="http://www.w3.org/1999/xlink" xmlns:a="http://ns.adobe.com/AdobeSVGViewerExtensions/3.0/"
	 x="0px" y="0px" width="1020.3px" height="140px" viewBox="0 0 1020.3 140" style="enable-background:new 0 0 1020.3 140;"
	 xml:space="preserve">
<style type="text/css">
	.st0{fill:url(#SVGID_1_);}
	.st1{fill:url(#SVGID_2_);}
	.st2{fill:url(#SVGID_3_);}
	.st3{fill:url(#SVGID_4_);}
	.st4{fill:url(#SVGID_5_);}
	.st5{fill:url(#SVGID_6_);}
	.st6{fill:url(#SVGID_7_);}
	.st7{fill:url(#SVGID_8_);}
	.st8{fill:url(#SVGID_9_);}
	.st9{fill:url(#SVGID_10_);}
	.st10{fill:url(#SVGID_11_);}
	.st11{fill:url(#SVGID_12_);}
	.st12{fill:url(#SVGID_13_);}
	.st13{fill:url(#SVGID_14_);}
	.st14{fill:url(#SVGID_15_);}
	.st15{fill:url(#SVGID_16_);}
	.st16{fill:url(#SVGID_17_);}
	.st17{fill:url(#SVGID_18_);}
</style>
<defs>
</defs>
<linearGradient id="SVGID_1_" gradientUnits="userSpaceOnUse" x1="55.9089" y1="126.0623" x2="60.1766" y2="16.2678" gradientTransform="matrix(0.9992 -3.884029e-02 3.884029e-02 0.9992 -4.4762 -1.5439)">
	<stop  offset="0" style="stop-color:#7DD4A1"/>
	<stop  offset="2.972973e-02" style="stop-color:#57CD77"/>
	<stop  offset="6.216216e-02" style="stop-color:#24D3D6"/>
	<stop  offset="9.459460e-02" style="stop-color:#15AAFC"/>
	<stop  offset="0.127" style="stop-color:#4777FF"/>
	<stop  offset="0.1649" style="stop-color:#6060FF"/>
	<stop  offset="0.1973" style="stop-color:#7042FF"/>
	<stop  offset="0.2351" style="stop-color:#7D3EFE"/>
	<stop  offset="0.2892" style="stop-color:#AD45C6"/>
	<stop  offset="0.3324" style="stop-color:#B246C0"/>
	<stop  offset="0.3649" style="stop-color:#F74B9D"/>
	<stop  offset="0.3973" style="stop-color:#FF5359"/>
	<stop  offset="0.4243" style="stop-color:#F97E41"/>
	<stop  offset="0.4568" style="stop-color:#F8833E"/>
	<stop  offset="0.4892" style="stop-color:#F69D37"/>
	<stop  offset="0.527" style="stop-color:#E2A743"/>
	<stop  offset="0.5595" style="stop-color:#F69D37"/>
	<stop  offset="0.5919" style="stop-color:#F8833E"/>
	<stop  offset="0.6189" style="stop-color:#FF5359"/>
	<stop  offset="0.6514" style="stop-color:#F74B9D"/>
	<stop  offset="0.6784" style="stop-color:#B246C0"/>
	<stop  offset="0.7108" style="stop-color:#7D3EFE"/>
	<stop  offset="0.7432" style="stop-color:#7042FF"/>
	<stop  offset="0.7757" style="stop-color:#6060FF"/>
	<stop  offset="0.8081" style="stop-color:#4777FF"/>
	<stop  offset="0.8351" style="stop-color:#15AAFC"/>
	<stop  offset="0.873" style="stop-color:#24D3D6"/>
	<stop  offset="0.9108" style="stop-color:#57CD77"/>
	<stop  offset="0.9541" style="stop-color:#7DD4A1"/>
	<stop  offset="1" style="stop-color:#54CEDB"/>
</linearGradient>
<path class="st0" d="M99.2,32.8c-4.3,5.2-11,14.5-20,27.9c-9,13.3-15.3,21.9-19.1,25.8c-3.7,3.9-6.8,5.8-9.3,5.9
	c-1.9,0.1-3.8-1.3-5.7-4c-1.9-2.8-4.4-8.4-7.6-16.8C31,54.3,26.9,44.3,25.3,41.7c-0.5,1.6-1,4.2-1.6,7.7c-1.2,7.5-2.8,16.6-4.8,27.4
	c-3.9,20.7-6.1,34.4-6.5,41.1c-0.1,0.8-0.8,1.8-2.1,2.8c-1.4,1-2.5,1.5-3.4,1.6c-1.7,0.1-3.2-0.7-4.7-2.3c-1.5-1.6-2.2-3.2-2.3-4.7
	c-0.2-4,0.9-11.1,3.2-21.3l5.1-22.8c3.1-14.4,5-24.9,5.6-31.6c0.6-6.7,0.8-12,0.7-15.9c-0.2-4,2.9-6.1,9.2-6.4
	c1.3-0.1,2.8,1.1,4.3,3.3c1.6,2.3,2.6,4.3,3.1,6c0.7,1.7,1.5,3.6,2.4,5.8l10.2,25.4c4,10.4,6.5,16.3,7.4,17.6c0.9,1.3,1.6,2,2.2,1.9
	c2.3-0.6,10.2-11,23.7-31.2c15-22.4,23.6-33.7,25.8-33.7c1.8-0.1,3.9,0.6,6.2,1.9c2.3,1.4,3.4,2.6,3.5,3.6c0,0.5-0.9,10.6-2.8,30.4
	c-0.7,7.3-1.2,16.1-1.7,26.4c-0.4,10.2-0.6,16-0.6,17.3c0.1,2.3,0.6,4.9,1.5,7.8c0.8,2.5,1.3,4.6,1.3,6.2c0,1.2-0.1,3-0.5,5.4
	c-0.4,2.4-1.3,3.8-2.8,4.3c-1.5,0.5-2.7,0.7-3.7,0.8c-4.8,0.2-7.4-3.7-7.7-11.8c-0.3-7.3,0.6-25.4,2.7-54.1c0.1-2.3,0.2-3.7,0.2-4.3
	c0-0.4,0.2-1.9,0.6-4.6c0.3-2.3,0.5-4.2,0.4-5.8C99.6,34.3,99.4,33.3,99.2,32.8z"/>
<linearGradient id="SVGID_2_" gradientUnits="userSpaceOnUse" x1="181.3624" y1="131.688" x2="165.9466" y2="21.231" gradientTransform="matrix(0.9904 0.1382 -0.1382 0.9904 8.8704 -36.5425)">
	<stop  offset="0" style="stop-color:#7DD4A1"/>
	<stop  offset="2.972973e-02" style="stop-color:#57CD77"/>
	<stop  offset="6.216216e-02" style="stop-color:#24D3D6"/>
	<stop  offset="9.459460e-02" style="stop-color:#15AAFC"/>
	<stop  offset="0.127" style="stop-color:#4777FF"/>
	<stop  offset="0.1649" style="stop-color:#6060FF"/>
	<stop  offset="0.1973" style="stop-color:#7042FF"/>
	<stop  offset="0.2351" style="stop-color:#7D3EFE"/>
	<stop  offset="0.2892" style="stop-color:#AD45C6"/>
	<stop  offset="0.3324" style="stop-color:#B246C0"/>
	<stop  offset="0.3649" style="stop-color:#F74B9D"/>
	<stop  offset="0.3973" style="stop-color:#FF5359"/>
	<stop  offset="0.4243" style="stop-color:#F97E41"/>
	<stop  offset="0.4568" style="stop-color:#F8833E"/>
	<stop  offset="0.4892" style="stop-color:#F69D37"/>
	<stop  offset="0.527" style="stop-color:#E2A743"/>
	<stop  offset="0.5595" style="stop-color:#F69D37"/>
	<stop  offset="0.5919" style="stop-color:#F8833E"/>
	<stop  offset="0.6189" style="stop-color:#FF5359"/>
	<stop  offset="0.6514" style="stop-color:#F74B9D"/>
	<stop  offset="0.6784" style="stop-color:#B246C0"/>
	<stop  offset="0.7108" style="stop-color:#7D3EFE"/>
	<stop  offset="0.7432" style="stop-color:#7042FF"/>
	<stop  offset="0.7757" style="stop-color:#6060FF"/>
	<stop  offset="0.8081" style="stop-color:#4777FF"/>
	<stop  offset="0.8351" style="stop-color:#15AAFC"/>
	<stop  offset="0.873" style="stop-color:#24D3D6"/>
	<stop  offset="0.9108" style="stop-color:#57CD77"/>
	<stop  offset="0.9541" style="stop-color:#7DD4A1"/>
	<stop  offset="1" style="stop-color:#54CEDB"/>
</linearGradient>
<path class="st1" d="M223.3,109.6c-0.4-0.9-1.7-2.6-3.6-5.2c-3.1-4.1-6.3-10.7-9.5-20.1c-3.2-9.3-5.9-20.4-8.3-33.2
	c-1-5.6-2.1-10.8-3.3-15.7c-1-3.7-1.8-8.3-2.6-13.9l-0.5-3c0.6-0.9,1-2.4,1.2-4.3c0.3-1.9,0.2-3-0.1-3.4c-1.3-1.8-3.4-3-6.4-3.4
	c-1.4-0.2-3.7,1.2-6.8,4.2c-3.1,3-10.8,13.1-23.2,30.3c-7.8,10.8-17.2,22.3-28,34.3c-6.1,6.8-10.1,11.3-12.1,13.6
	c-2,2.2-3.1,4.1-3.3,5.6c-0.2,1.5,0.4,3.1,2,4.8c1.5,1.7,2.9,2.6,4.1,2.8c1.7,0.2,3.4-0.5,5.1-2.2c1.7-1.7,5.9-7,12.8-16
	c4.2-5.4,6.7-8.1,7.7-8c0.3,0,0.6,0.2,0.8,0.4c1.1,1.3,2.2,2,3.3,2.2c0.9,0.1,3.1-0.1,6.7-0.7c6.2-0.9,13-1.6,20.4-1.9
	c7.4-0.3,12.2-0.3,14.4,0c0.7,0.1,2.2,4,4.5,11.7c5.7,19.5,11.5,29.6,17.3,30.4c1.9,0.3,3.6-0.2,5.1-1.4c1.5-1.2,2.4-2.8,2.7-4.8
	C223.9,111.5,223.7,110.5,223.3,109.6z M171,66.7c-2.4,0.2-5.2,0.2-8.4,0.1c-4.2-0.1-6.8,0.1-7.8,0.7l15.6-21.7
	c6.6-9,11.5-15.9,14.7-20.8c0.6,2.4,1.9,8.9,3.8,19.7c1.7,10.1,3.2,17.1,4.2,21C191.2,65.6,183.8,65.9,171,66.7z"/>
<linearGradient id="SVGID_3_" gradientUnits="userSpaceOnUse" x1="296.6195" y1="121.7395" x2="286.4403" y2="20.4348" gradientTransform="matrix(0.995 9.997726e-02 -9.997726e-02 0.995 4.912 -48.9699)">
	<stop  offset="0" style="stop-color:#7DD4A1"/>
	<stop  offset="2.972973e-02" style="stop-color:#57CD77"/>
	<stop  offset="6.216216e-02" style="stop-color:#24D3D6"/>
	<stop  offset="9.459460e-02" style="stop-color:#15AAFC"/>
	<stop  offset="0.127" style="stop-color:#4777FF"/>
	<stop  offset="0.1649" style="stop-color:#6060FF"/>
	<stop  offset="0.1973" style="stop-color:#7042FF"/>
	<stop  offset="0.2351" style="stop-color:#7D3EFE"/>
	<stop  offset="0.2892" style="stop-color:#AD45C6"/>
	<stop  offset="0.3324" style="stop-color:#B246C0"/>
	<stop  offset="0.3649" style="stop-color:#F74B9D"/>
	<stop  offset="0.3973" style="stop-color:#FF5359"/>
	<stop  offset="0.4243" style="stop-color:#F97E41"/>
	<stop  offset="0.4568" style="stop-color:#F8833E"/>
	<stop  offset="0.4892" style="stop-color:#F69D37"/>
	<stop  offset="0.527" style="stop-color:#E2A743"/>
	<stop  offset="0.5595" style="stop-color:#F69D37"/>
	<stop  offset="0.5919" style="stop-color:#F8833E"/>
	<stop  offset="0.6189" style="stop-color:#FF5359"/>
	<stop  offset="0.6514" style="stop-color:#F74B9D"/>
	<stop  offset="0.6784" style="stop-color:#B246C0"/>
	<stop  offset="0.7108" style="stop-color:#7D3EFE"/>
	<stop  offset="0.7432" style="stop-color:#7042FF"/>
	<stop  offset="0.7757" style="stop-color:#6060FF"/>
	<stop  offset="0.8081" style="stop-color:#4777FF"/>
	<stop  offset="0.8351" style="stop-color:#15AAFC"/>
	<stop  offset="0.873" style="stop-color:#24D3D6"/>
	<stop  offset="0.9108" style="stop-color:#57CD77"/>
	<stop  offset="0.9541" style="stop-color:#7DD4A1"/>
	<stop  offset="1" style="stop-color:#54CEDB"/>
</linearGradient>
<path class="st2" d="M341.4,14c-0.2,0.4-1.2,1.1-3.2,2c-1.5,0.7-3.4,2.2-5.8,4.6c-1.8,1.8-3.8,3.7-6.1,5.7l-9.3,8.6
	C306,45.2,297.2,53,290.7,58.1c-2.1,1.7-4.4,3.6-6.9,5.7l-22.6,18.7c-0.2,0.9,0.3,1.4,1.6,1.5c4,0.4,13.3,0.6,27.7,0.6
	c2.8,0,5.1,0.1,7,0.3c3.4,0.3,6.3,0.5,8.5,0.6c2.3,0,4.2,0.1,5.9,0.3c12,1.2,17.7,4.5,17.1,9.8c-0.4,4.4-2.3,6.5-5.7,6.1
	c-1.6-0.2-2.9-0.4-4-0.8c-5.7-2-11.7-3.4-18-4c-3.2-0.3-12.9-0.8-29-1.4l-4.4-0.2c-9.4-0.3-17.5,0-24.3,1.2c-3.9,0.7-6.2,1-6.9,0.9
	c-2.9-0.3-4.2-2.1-3.9-5.4c0.3-3.2,1.5-5.5,3.4-6.6c10.1-5.9,25-16.9,44.6-33c19.6-16.1,32.8-27.9,39.6-35.5l-1.6-0.2
	c-3.8-0.5-11.3-0.8-22.4-0.9c-2.4,0-4.9-0.1-7.5-0.1c-2.5-0.1-4.6-0.1-6.3-0.1c-6,0-10.8-0.1-14.5-0.5c-5.4-0.5-9.1-1.7-11.2-3.5
	c-2.1-1.8-3.1-3.7-2.9-5.6c0.1-1.2,0.9-2.5,2.3-3.9c1.4-1.4,2.5-2.1,3.3-2c0.5,0.1,1.5,0.4,2.9,1.1c1.5,0.8,2.8,1.2,3.8,1.3
	c4.2,0.4,8,0.9,11.5,1.3c3.5,0.5,8.1,0.8,13.9,0.9c5.7,0.1,11.2,0.3,16.5,0.7c7.3,0.5,14.8,0.5,22.6-0.2c4-0.3,7-0.4,9.1-0.2
	c2.1,0.2,3,1.7,2.7,4.6C342.6,11.6,342.2,13.1,341.4,14z"/>
<linearGradient id="SVGID_4_" gradientUnits="userSpaceOnUse" x1="396.278" y1="125.6793" x2="400.3241" y2="17.2336" gradientTransform="matrix(0.9993 -3.728341e-02 3.728341e-02 0.9993 -0.8006 19.8981)">
	<stop  offset="0" style="stop-color:#7DD4A1"/>
	<stop  offset="2.972973e-02" style="stop-color:#57CD77"/>
	<stop  offset="6.216216e-02" style="stop-color:#24D3D6"/>
	<stop  offset="9.459460e-02" style="stop-color:#15AAFC"/>
	<stop  offset="0.127" style="stop-color:#4777FF"/>
	<stop  offset="0.1649" style="stop-color:#6060FF"/>
	<stop  offset="0.1973" style="stop-color:#7042FF"/>
	<stop  offset="0.2351" style="stop-color:#7D3EFE"/>
	<stop  offset="0.2892" style="stop-color:#AD45C6"/>
	<stop  offset="0.3324" style="stop-color:#B246C0"/>
	<stop  offset="0.3649" style="stop-color:#F74B9D"/>
	<stop  offset="0.3973" style="stop-color:#FF5359"/>
	<stop  offset="0.4243" style="stop-color:#F97E41"/>
	<stop  offset="0.4568" style="stop-color:#F8833E"/>
	<stop  offset="0.4892" style="stop-color:#F69D37"/>
	<stop  offset="0.527" style="stop-color:#E2A743"/>
	<stop  offset="0.5595" style="stop-color:#F69D37"/>
	<stop  offset="0.5919" style="stop-color:#F8833E"/>
	<stop  offset="0.6189" style="stop-color:#FF5359"/>
	<stop  offset="0.6514" style="stop-color:#F74B9D"/>
	<stop  offset="0.6784" style="stop-color:#B246C0"/>
	<stop  offset="0.7108" style="stop-color:#7D3EFE"/>
	<stop  offset="0.7432" style="stop-color:#7042FF"/>
	<stop  offset="0.7757" style="stop-color:#6060FF"/>
	<stop  offset="0.8081" style="stop-color:#4777FF"/>
	<stop  offset="0.8351" style="stop-color:#15AAFC"/>
	<stop  offset="0.873" style="stop-color:#24D3D6"/>
	<stop  offset="0.9108" style="stop-color:#57CD77"/>
	<stop  offset="0.9541" style="stop-color:#7DD4A1"/>
	<stop  offset="1" style="stop-color:#54CEDB"/>
</linearGradient>
<path class="st3" d="M435.3,34.3c-0.1,0.1-1.4,0.1-3.8,0.1c-2.4,0-4.8,0.3-7.2,1c-2.5,0.7-4.6,1.1-6.6,1.3c-1.3,0.1-2.8,0.4-4.3,0.7
	c-2,0.4-5.9,0.8-11.7,1.1c-8.8,0.5-14.3,1.3-16.5,2.4c-2.2,1.1-3.4,3.4-3.6,6.7c-0.1,2.5-0.5,5.3-1.1,8.4
	c-1.9,9.1-2.8,15.2-2.7,18.2l1,0c2.2,0.1,6.5-0.4,13-1.4c6.5-1,11.4-1.9,14.6-2.8c6.6-1.9,11.7-2.8,15.3-3c5.7-0.2,8.7,1.2,8.8,4.3
	c0.1,3.8-1.7,6.1-5.5,7.1c-3.8,1-11.8,2.4-23.9,4.2c-14.8,2.2-22.7,4-23.6,5.3c-0.9,1.3-1.8,5.6-2.7,12.7
	c-0.8,7.2-1.2,11.7-1.1,13.7l0,0.8c0.3,2.3,1.8,3.5,4.6,3.8l1.2,0c2.5,0,5.5-0.3,9-1l13.1-2.4c4.9-0.9,9.8-1.9,14.8-3
	c6.2-1.6,10.2-2.4,11.9-2.4c1.3,0,2.7,0.4,4.4,1.5c1.6,1,2.5,2.7,2.6,5c0.1,1.7-0.3,2.9-1.1,3.6c-4.6,2.2-10.6,3.6-18,4.1
	c-6.4,0.5-16.3,1.9-29.7,4.3c-6.8,1.3-11.3,1.9-13.4,2c-5.4,0.2-8.7-0.1-10.1-0.9c-1.4-0.8-2.3-2.8-2.7-6.1l-0.4-2.3l0-0.3
	c0-0.7,0.3-2.2,1.1-4.5c1-3.3,2.1-9.5,3.3-18.7c1.2-9.2,1.9-16.5,2.2-21.8c0.2-1.8,0.4-4.1,0.9-6.7c1.6-11,2.3-19.7,2.1-26.1
	c0-0.3-0.5-1.2-1.5-2.5c-0.2-0.3-0.4-0.5-0.5-0.7c-0.4-1-0.7-1.9-1-2.6c-0.3-0.6-0.5-1.4-0.6-2.3l0-0.7c0-1,0.5-1.9,1.8-2.8
	c1.2-0.8,2.4-1.3,3.5-1.3l0.2,0c1.9-0.1,4.1,0,6.6,0.2l0.3,0c1.1,0,6.1-0.7,15.2-1.9c9.1-1.2,19.9-3.1,32.5-5.8
	c1.3-0.3,2.1-0.4,2.4-0.4l1-0.1c3.6-0.4,6-0.1,7.4,0.8c1.4,0.9,2.3,2.7,2.7,5.4c0,1.3-0.5,2.5-1.7,3.8
	C436.9,33.5,436,34.2,435.3,34.3z"/>
<linearGradient id="SVGID_5_" gradientUnits="userSpaceOnUse" x1="561.5728" y1="122.5856" x2="543.5543" y2="19.0414" gradientTransform="matrix(0.9852 0.1714 -0.1714 0.9852 18.4546 -111.878)">
	<stop  offset="0" style="stop-color:#7DD4A1"/>
	<stop  offset="2.972973e-02" style="stop-color:#57CD77"/>
	<stop  offset="6.216216e-02" style="stop-color:#24D3D6"/>
	<stop  offset="9.459460e-02" style="stop-color:#15AAFC"/>
	<stop  offset="0.127" style="stop-color:#4777FF"/>
	<stop  offset="0.1649" style="stop-color:#6060FF"/>
	<stop  offset="0.1973" style="stop-color:#7042FF"/>
	<stop  offset="0.2351" style="stop-color:#7D3EFE"/>
	<stop  offset="0.2892" style="stop-color:#AD45C6"/>
	<stop  offset="0.3324" style="stop-color:#B246C0"/>
	<stop  offset="0.3649" style="stop-color:#F74B9D"/>
	<stop  offset="0.3973" style="stop-color:#FF5359"/>
	<stop  offset="0.4243" style="stop-color:#F97E41"/>
	<stop  offset="0.4568" style="stop-color:#F8833E"/>
	<stop  offset="0.4892" style="stop-color:#F69D37"/>
	<stop  offset="0.527" style="stop-color:#E2A743"/>
	<stop  offset="0.5595" style="stop-color:#F69D37"/>
	<stop  offset="0.5919" style="stop-color:#F8833E"/>
	<stop  offset="0.6189" style="stop-color:#FF5359"/>
	<stop  offset="0.6514" style="stop-color:#F74B9D"/>
	<stop  offset="0.6784" style="stop-color:#B246C0"/>
	<stop  offset="0.7108" style="stop-color:#7D3EFE"/>
	<stop  offset="0.7432" style="stop-color:#7042FF"/>
	<stop  offset="0.7757" style="stop-color:#6060FF"/>
	<stop  offset="0.8081" style="stop-color:#4777FF"/>
	<stop  offset="0.8351" style="stop-color:#15AAFC"/>
	<stop  offset="0.873" style="stop-color:#24D3D6"/>
	<stop  offset="0.9108" style="stop-color:#57CD77"/>
	<stop  offset="0.9541" style="stop-color:#7DD4A1"/>
	<stop  offset="1" style="stop-color:#54CEDB"/>
</linearGradient>
<path class="st4" d="M573.2,84.9c1.8,0.3,2.5,1.5,2.1,3.7c-0.4,2.3-3.5,5.1-9.2,8.4s-12.1,5.7-19.2,7c-7,1.3-13.3,1.5-18.7,0.6
	c-8-1.4-14.8-5.3-20.5-11.7c-5.7-6.4-7.6-14.7-5.9-24.7c3.2-18.3,14.2-34.8,33-49.4c18.8-14.6,35.5-20.6,50.1-18.1
	c5.5,1,9.6,3.4,12.2,7.3c2.7,3.9,3.6,8.1,2.9,12.6c-0.7,4.2-1.5,7.4-2.4,9.7c-0.9,2.3-2.7,4.1-5.4,5.3c-2.7,1.2-4.8,1.7-6.2,1.5
	c-1-0.2-1.9-0.8-2.5-1.8c-0.6-1-0.8-2.3-0.5-3.9c0.2-1,0.9-3.1,2.3-6.3c1.3-3.1,2.1-5.5,2.4-7.1c0.8-4.6-0.8-7.3-4.8-8
	c-6.2-1.1-14.6,1.2-25,6.7C547.3,22.4,538,30.1,529.6,40c-8.3,9.9-13.3,19.5-14.9,28.8c-1.1,6.2-0.1,11.7,2.8,16.4
	c3,4.7,7.9,7.7,14.7,8.9c3.9,0.7,8.9,0.5,14.9-0.5c6-1,11.6-2.7,16.9-5.2C569.3,85.9,572.3,84.7,573.2,84.9z"/>
<linearGradient id="SVGID_6_" gradientUnits="userSpaceOnUse" x1="651.1254" y1="127.0684" x2="662.6984" y2="19.1356" gradientTransform="matrix(0.9943 -0.1066 0.1066 0.9943 -8.8131 77.2996)">
	<stop  offset="0" style="stop-color:#7DD4A1"/>
	<stop  offset="2.972973e-02" style="stop-color:#57CD77"/>
	<stop  offset="6.216216e-02" style="stop-color:#24D3D6"/>
	<stop  offset="9.459460e-02" style="stop-color:#15AAFC"/>
	<stop  offset="0.127" style="stop-color:#4777FF"/>
	<stop  offset="0.1649" style="stop-color:#6060FF"/>
	<stop  offset="0.1973" style="stop-color:#7042FF"/>
	<stop  offset="0.2351" style="stop-color:#7D3EFE"/>
	<stop  offset="0.2892" style="stop-color:#AD45C6"/>
	<stop  offset="0.3324" style="stop-color:#B246C0"/>
	<stop  offset="0.3649" style="stop-color:#F74B9D"/>
	<stop  offset="0.3973" style="stop-color:#FF5359"/>
	<stop  offset="0.4243" style="stop-color:#F97E41"/>
	<stop  offset="0.4568" style="stop-color:#F8833E"/>
	<stop  offset="0.4892" style="stop-color:#F69D37"/>
	<stop  offset="0.527" style="stop-color:#E2A743"/>
	<stop  offset="0.5595" style="stop-color:#F69D37"/>
	<stop  offset="0.5919" style="stop-color:#F8833E"/>
	<stop  offset="0.6189" style="stop-color:#FF5359"/>
	<stop  offset="0.6514" style="stop-color:#F74B9D"/>
	<stop  offset="0.6784" style="stop-color:#B246C0"/>
	<stop  offset="0.7108" style="stop-color:#7D3EFE"/>
	<stop  offset="0.7432" style="stop-color:#7042FF"/>
	<stop  offset="0.7757" style="stop-color:#6060FF"/>
	<stop  offset="0.8081" style="stop-color:#4777FF"/>
	<stop  offset="0.8351" style="stop-color:#15AAFC"/>
	<stop  offset="0.873" style="stop-color:#24D3D6"/>
	<stop  offset="0.9108" style="stop-color:#57CD77"/>
	<stop  offset="0.9541" style="stop-color:#7DD4A1"/>
	<stop  offset="1" style="stop-color:#54CEDB"/>
</linearGradient>
<path class="st5" d="M618,32.4c13.2-3.6,22.9-5.8,29-6.4c9.6-1,17.6,0.4,23.8,4.4c6.2,3.9,9.7,9.4,10.5,16.3
	c0.7,6.9-1.6,13.7-7.1,20.5s-12.6,12.4-21.4,16.8c-1.1,0.6-1.6,1.1-1.6,1.6c0.1,0.8,5.2,4.3,15.4,10.6c10.2,6.3,19.5,11.4,27.9,15.5
	c2.4,1.1,3.7,2.8,3.9,5c0.2,1.5-0.5,3-1.8,4.6c-1.4,1.6-2.7,2.5-4,2.6c-2.7,0.3-7.2-1.5-13.6-5.3c-6.4-3.8-13-8.1-20-12.8
	c-15-10.1-23.3-15.1-24.9-15c-3.1,0.2-5.4,0-6.7-0.6c-1.4-0.6-2.1-2-2.4-4c-0.2-1.7,0.5-3.3,2-4.8c1.5-1.5,3.4-2.3,5.6-2.6
	c0.8-0.1,2-0.1,3.7-0.1c1.7,0.1,3,0.1,3.8,0c3.7-0.4,9.6-3.8,17.9-10.2c8.3-6.4,12-13.2,11.2-20.6c-0.4-3.9-2.7-7-7-9.4
	c-4.2-2.4-9.4-3.2-15.5-2.6c-4.6,0.5-9.1,1.3-13.6,2.4c-4.5,1.1-7.3,2-8.6,2.6c-1.2,0.6-2.1,1.9-2.7,3.9c-0.6,2-1.2,8.2-2,18.5
	c-0.7,10.4-1.1,20.1-1.2,29.3c-0.1,9.1,0.1,15.8,0.6,20.1c0.4,3.3,0.9,6.1,1.6,8.5c0.7,2.4,1.1,4.3,1.2,5.8c0.1,1.4-0.4,2.9-1.7,4.5
	c-1.3,1.6-2.8,2.5-4.5,2.7c-4.8,0.5-7.6-3.1-8.4-10.9c-2-18.3-1.4-43,1.8-74.1c0.1-1.6,0.2-2.6,0.2-2.9s-0.2-0.7-0.6-1.2
	c-2.1-2.7-3.3-4.5-3.4-5.5c-0.2-1.7,0.5-3.3,2-4.8c1.6-1.5,3-2.3,4.4-2.4L618,32.4z"/>
<linearGradient id="SVGID_7_" gradientUnits="userSpaceOnUse" x1="757.8329" y1="134.7305" x2="734.2271" y2="24.0317" gradientTransform="matrix(0.978 0.2086 -0.2086 0.978 33.9964 -163.7442)">
	<stop  offset="0" style="stop-color:#7DD4A1"/>
	<stop  offset="2.972973e-02" style="stop-color:#57CD77"/>
	<stop  offset="6.216216e-02" style="stop-color:#24D3D6"/>
	<stop  offset="9.459460e-02" style="stop-color:#15AAFC"/>
	<stop  offset="0.127" style="stop-color:#4777FF"/>
	<stop  offset="0.1649" style="stop-color:#6060FF"/>
	<stop  offset="0.1973" style="stop-color:#7042FF"/>
	<stop  offset="0.2351" style="stop-color:#7D3EFE"/>
	<stop  offset="0.2892" style="stop-color:#AD45C6"/>
	<stop  offset="0.3324" style="stop-color:#B246C0"/>
	<stop  offset="0.3649" style="stop-color:#F74B9D"/>
	<stop  offset="0.3973" style="stop-color:#FF5359"/>
	<stop  offset="0.4243" style="stop-color:#F97E41"/>
	<stop  offset="0.4568" style="stop-color:#F8833E"/>
	<stop  offset="0.4892" style="stop-color:#F69D37"/>
	<stop  offset="0.527" style="stop-color:#E2A743"/>
	<stop  offset="0.5595" style="stop-color:#F69D37"/>
	<stop  offset="0.5919" style="stop-color:#F8833E"/>
	<stop  offset="0.6189" style="stop-color:#FF5359"/>
	<stop  offset="0.6514" style="stop-color:#F74B9D"/>
	<stop  offset="0.6784" style="stop-color:#B246C0"/>
	<stop  offset="0.7108" style="stop-color:#7D3EFE"/>
	<stop  offset="0.7432" style="stop-color:#7042FF"/>
	<stop  offset="0.7757" style="stop-color:#6060FF"/>
	<stop  offset="0.8081" style="stop-color:#4777FF"/>
	<stop  offset="0.8351" style="stop-color:#15AAFC"/>
	<stop  offset="0.873" style="stop-color:#24D3D6"/>
	<stop  offset="0.9108" style="stop-color:#57CD77"/>
	<stop  offset="0.9541" style="stop-color:#7DD4A1"/>
	<stop  offset="1" style="stop-color:#54CEDB"/>
</linearGradient>
<path class="st6" d="M799.5,117.2c-0.4-1-1.5-2.8-3.2-5.4c-2.8-4.3-5.5-11.2-8-20.7c-2.5-9.5-4.5-20.7-5.9-33.7
	c-0.6-5.6-1.4-10.9-2.2-15.9c-0.7-3.7-1.2-8.4-1.6-14l-0.3-3c0.6-0.9,1.1-2.3,1.5-4.2c0.4-1.9,0.4-3,0.1-3.4
	c-1.1-1.9-3.2-3.2-6.2-3.8c-1.4-0.3-3.7,0.9-7.1,3.7c-3.3,2.7-11.7,12.3-25.3,28.6c-8.6,10.2-18.7,21-30.4,32.2
	c-6.6,6.3-10.9,10.6-13.1,12.7c-2.1,2.1-3.4,3.9-3.7,5.3c-0.3,1.5,0.2,3.1,1.6,4.9c1.4,1.8,2.7,2.8,3.9,3.1c1.7,0.4,3.5-0.2,5.3-1.8
	c1.8-1.6,6.4-6.6,13.9-15.1c4.5-5.1,7.3-7.6,8.3-7.4c0.3,0.1,0.6,0.2,0.8,0.4c1,1.4,2,2.2,3.1,2.4c0.9,0.2,3.1,0.1,6.7-0.2
	c6.3-0.5,13.1-0.6,20.5-0.4c7.4,0.2,12.2,0.6,14.3,1c0.7,0.1,1.9,4.1,3.6,12c4.3,19.8,9.3,30.4,15.1,31.6c1.8,0.4,3.6,0,5.2-1
	c1.6-1.1,2.6-2.6,3.1-4.6C800,119.2,799.9,118.1,799.5,117.2z M750.5,70.6c-2.4,0-5.2-0.2-8.3-0.5c-4.1-0.4-6.8-0.4-7.9,0.2
	l17.1-20.5c7.2-8.5,12.6-15,16.2-19.7c0.4,2.4,1.2,9,2.4,19.9c1,10.2,1.9,17.3,2.7,21.2C770.7,71,763.3,70.8,750.5,70.6z"/>
<linearGradient id="SVGID_8_" gradientUnits="userSpaceOnUse" x1="862.1111" y1="127.5734" x2="875.5231" y2="15.4889" gradientTransform="matrix(0.9929 -0.1188 0.1188 0.9929 -3.7214 115.7483)">
	<stop  offset="0" style="stop-color:#7DD4A1"/>
	<stop  offset="2.972973e-02" style="stop-color:#57CD77"/>
	<stop  offset="6.216216e-02" style="stop-color:#24D3D6"/>
	<stop  offset="9.459460e-02" style="stop-color:#15AAFC"/>
	<stop  offset="0.127" style="stop-color:#4777FF"/>
	<stop  offset="0.1649" style="stop-color:#6060FF"/>
	<stop  offset="0.1973" style="stop-color:#7042FF"/>
	<stop  offset="0.2351" style="stop-color:#7D3EFE"/>
	<stop  offset="0.2892" style="stop-color:#AD45C6"/>
	<stop  offset="0.3324" style="stop-color:#B246C0"/>
	<stop  offset="0.3649" style="stop-color:#F74B9D"/>
	<stop  offset="0.3973" style="stop-color:#FF5359"/>
	<stop  offset="0.4243" style="stop-color:#F97E41"/>
	<stop  offset="0.4568" style="stop-color:#F8833E"/>
	<stop  offset="0.4892" style="stop-color:#F69D37"/>
	<stop  offset="0.527" style="stop-color:#E2A743"/>
	<stop  offset="0.5595" style="stop-color:#F69D37"/>
	<stop  offset="0.5919" style="stop-color:#F8833E"/>
	<stop  offset="0.6189" style="stop-color:#FF5359"/>
	<stop  offset="0.6514" style="stop-color:#F74B9D"/>
	<stop  offset="0.6784" style="stop-color:#B246C0"/>
	<stop  offset="0.7108" style="stop-color:#7D3EFE"/>
	<stop  offset="0.7432" style="stop-color:#7042FF"/>
	<stop  offset="0.7757" style="stop-color:#6060FF"/>
	<stop  offset="0.8081" style="stop-color:#4777FF"/>
	<stop  offset="0.8351" style="stop-color:#15AAFC"/>
	<stop  offset="0.873" style="stop-color:#24D3D6"/>
	<stop  offset="0.9108" style="stop-color:#57CD77"/>
	<stop  offset="0.9541" style="stop-color:#7DD4A1"/>
	<stop  offset="1" style="stop-color:#54CEDB"/>
</linearGradient>
<path class="st7" d="M909.1,35.7c-0.1,0.4-1,1.3-2.7,2.6c-1.3,1-2.9,2.9-4.7,5.8c-1.4,2.2-2.9,4.4-4.7,6.9l-7.2,10.4
	c-8.5,12.5-15.4,22-20.7,28.5c-1.7,2.1-3.5,4.4-5.5,7l-18,23.2c0,0.9,0.6,1.2,1.9,1.1c4-0.5,13.1-2.3,27.2-5.4c2.7-0.6,5-1,6.9-1.2
	c3.4-0.4,6.2-0.8,8.4-1.3c2.2-0.4,4.1-0.8,5.8-1c11.9-1.4,18.2,0.5,18.9,5.9c0.5,4.4-0.9,6.8-4.2,7.2c-1.6,0.2-3,0.2-4.1,0.1
	c-6-0.8-12.2-0.8-18.5,0c-3.2,0.4-12.7,2-28.6,4.9l-4.3,0.8c-9.3,1.7-17.1,3.9-23.5,6.4c-3.7,1.5-5.9,2.3-6.5,2.4
	c-2.9,0.3-4.6-1.1-5-4.5c-0.4-3.2,0.2-5.6,1.9-7.2c8.6-8,20.7-21.9,36.3-41.9c15.6-20,26-34.4,31-43.3l-1.6,0.1
	c-3.8,0.3-11.2,1.7-22.1,4c-2.3,0.5-4.8,1-7.3,1.5c-2.4,0.5-4.5,0.9-6.2,1.3c-5.8,1.3-10.6,2.2-14.2,2.7c-5.4,0.6-9.3,0.3-11.7-1
	c-2.4-1.3-3.8-2.9-4-4.9c-0.1-1.2,0.3-2.6,1.4-4.3c1.1-1.7,2-2.6,2.8-2.7c0.5-0.1,1.6,0.1,3.1,0.4c1.6,0.4,3,0.5,4,0.4
	c4.2-0.5,8-0.9,11.5-1.2c3.5-0.3,8.1-1,13.8-2.2c5.6-1.1,11-2.1,16.3-2.9c7.2-1,14.6-2.7,22-5.1c3.8-1.2,6.8-1.9,8.8-2.2
	c2.1-0.3,3.3,1,3.7,3.9C909.7,33.1,909.6,34.7,909.1,35.7z"/>
<linearGradient id="SVGID_9_" gradientUnits="userSpaceOnUse" x1="977.4329" y1="121.9368" x2="969.0248" y2="21.4587" gradientTransform="matrix(0.9965 8.338904e-02 -8.338904e-02 0.9965 11.2899 -93.7326)">
	<stop  offset="0" style="stop-color:#7DD4A1"/>
	<stop  offset="2.972973e-02" style="stop-color:#57CD77"/>
	<stop  offset="6.216216e-02" style="stop-color:#24D3D6"/>
	<stop  offset="9.459460e-02" style="stop-color:#15AAFC"/>
	<stop  offset="0.127" style="stop-color:#4777FF"/>
	<stop  offset="0.1649" style="stop-color:#6060FF"/>
	<stop  offset="0.1973" style="stop-color:#7042FF"/>
	<stop  offset="0.2351" style="stop-color:#7D3EFE"/>
	<stop  offset="0.2892" style="stop-color:#AD45C6"/>
	<stop  offset="0.3324" style="stop-color:#B246C0"/>
	<stop  offset="0.3649" style="stop-color:#F74B9D"/>
	<stop  offset="0.3973" style="stop-color:#FF5359"/>
	<stop  offset="0.4243" style="stop-color:#F97E41"/>
	<stop  offset="0.4568" style="stop-color:#F8833E"/>
	<stop  offset="0.4892" style="stop-color:#F69D37"/>
	<stop  offset="0.527" style="stop-color:#E2A743"/>
	<stop  offset="0.5595" style="stop-color:#F69D37"/>
	<stop  offset="0.5919" style="stop-color:#F8833E"/>
	<stop  offset="0.6189" style="stop-color:#FF5359"/>
	<stop  offset="0.6514" style="stop-color:#F74B9D"/>
	<stop  offset="0.6784" style="stop-color:#B246C0"/>
	<stop  offset="0.7108" style="stop-color:#7D3EFE"/>
	<stop  offset="0.7432" style="stop-color:#7042FF"/>
	<stop  offset="0.7757" style="stop-color:#6060FF"/>
	<stop  offset="0.8081" style="stop-color:#4777FF"/>
	<stop  offset="0.8351" style="stop-color:#15AAFC"/>
	<stop  offset="0.873" style="stop-color:#24D3D6"/>
	<stop  offset="0.9108" style="stop-color:#57CD77"/>
	<stop  offset="0.9541" style="stop-color:#7DD4A1"/>
	<stop  offset="1" style="stop-color:#54CEDB"/>
</linearGradient>
<path class="st8" d="M1015.2,21.1c-0.1,0-1.4-0.1-3.7-0.4c-2.3-0.3-4.8-0.3-7.3,0.1c-2.5,0.4-4.7,0.6-6.7,0.5c-1.3,0-2.8,0-4.4,0.2
	c-2,0.2-5.9,0.1-11.7-0.4c-8.8-0.6-14.3-0.5-16.7,0.4c-2.4,0.9-3.8,2.9-4.4,6.2c-0.4,2.5-1.2,5.2-2.1,8.2c-3,8.8-4.6,14.7-4.9,17.7
	l1,0.2c2.1,0.3,6.5,0.4,13.1,0.2c6.6-0.2,11.6-0.5,14.9-1c6.8-1,12-1.4,15.5-1.1c5.7,0.5,8.5,2.3,8.2,5.3c-0.3,3.8-2.4,5.9-6.3,6.4
	c-3.9,0.5-12,0.9-24.2,1.3c-15,0.4-23,1.2-24.1,2.4c-1.1,1.2-2.5,5.3-4.2,12.3c-1.7,7-2.6,11.5-2.8,13.5l-0.1,0.8
	c0,2.3,1.4,3.7,4.1,4.3l1.2,0.2c2.5,0.3,5.5,0.4,9,0.1l13.3-0.8c5-0.3,10-0.7,15.1-1.2c6.4-0.8,10.4-1.1,12.1-1
	c1.3,0.1,2.7,0.8,4.2,2c1.5,1.2,2.1,3,1.9,5.3c-0.1,1.7-0.7,2.8-1.5,3.4c-4.8,1.7-11,2.3-18.3,1.9c-6.4-0.3-16.4-0.1-30.1,0.7
	c-6.9,0.4-11.4,0.6-13.6,0.4c-5.4-0.4-8.7-1.2-9.9-2.1c-1.3-1-1.9-3.1-1.9-6.4l-0.1-2.4l0-0.3c0.1-0.7,0.6-2.2,1.6-4.4
	c1.4-3.2,3.3-9.2,5.6-18.2c2.3-9,3.9-16.1,4.8-21.4c0.4-1.8,0.9-4,1.7-6.6c2.9-10.8,4.7-19.3,5.2-25.7c0-0.3-0.4-1.2-1.2-2.7
	c-0.2-0.3-0.3-0.5-0.4-0.7c-0.2-1.1-0.5-2-0.7-2.7c-0.3-0.7-0.4-1.4-0.3-2.3l0.1-0.7c0.1-1,0.8-1.8,2.1-2.5c1.3-0.7,2.5-1,3.7-0.9
	l0.2,0c1.9,0.2,4.1,0.5,6.6,1l0.3,0c1.1,0.1,6.2,0.1,15.3,0c9.2-0.1,20.2-0.7,33-1.8c1.3-0.1,2.2-0.2,2.4-0.1l1,0
	c3.6,0.1,6,0.6,7.3,1.7c1.3,1.1,2,2.9,2,5.7c-0.1,1.3-0.8,2.5-2.1,3.6C1016.9,20.5,1015.9,21,1015.2,21.1z"/>
</svg>
